<svg width="182" height="64" viewBox="0 0 182 64" fill="none" xmlns="http://www.w3.org/2000/svg">
<path d="M32 38L9 25L32 12L55 25L32 38ZM32 38V55M32 38L50 28" stroke="#FEF3F3" stroke-width="4" stroke-linecap="round" stroke-linejoin="round"/>
<mask id="path-2-outside-1_29005_40" maskUnits="userSpaceOnUse" x="68.0435" y="24.75" width="100" height="25" fill="black">
<rect fill="white" x="68.0435" y="24.75" width="100" height="25"/>
<path d="M69.7715 43.75V26.878H73.0355V43.75H69.7715ZM72.1715 43.75V40.846H80.7635V43.75H72.1715ZM88.0107 43.99C86.7947 43.99 85.7147 43.734 84.7707 43.222C83.8267 42.694 83.0747 41.974 82.5147 41.062C81.9707 40.15 81.6987 39.11 81.6987 37.942C81.6987 36.79 81.9627 35.766 82.4907 34.87C83.0347 33.958 83.7707 33.238 84.6987 32.71C85.6267 32.166 86.6587 31.894 87.7947 31.894C88.9147 31.894 89.8987 32.15 90.7467 32.662C91.6107 33.158 92.2827 33.846 92.7627 34.726C93.2587 35.59 93.5067 36.574 93.5067 37.678C93.5067 37.886 93.4907 38.102 93.4587 38.326C93.4427 38.534 93.4027 38.774 93.3387 39.046L83.5947 39.07V36.718L91.8747 36.694L90.6027 37.678C90.5707 36.99 90.4427 36.414 90.2187 35.95C90.0107 35.486 89.6987 35.134 89.2827 34.894C88.8827 34.638 88.3867 34.51 87.7947 34.51C87.1707 34.51 86.6267 34.654 86.1627 34.942C85.6987 35.214 85.3387 35.606 85.0827 36.118C84.8427 36.614 84.7227 37.206 84.7227 37.894C84.7227 38.598 84.8507 39.214 85.1067 39.742C85.3787 40.254 85.7627 40.654 86.2587 40.942C86.7547 41.214 87.3307 41.35 87.9867 41.35C88.5787 41.35 89.1147 41.254 89.5947 41.062C90.0747 40.854 90.4907 40.55 90.8427 40.15L92.6907 41.998C92.1307 42.654 91.4427 43.15 90.6267 43.486C89.8267 43.822 88.9547 43.99 88.0107 43.99ZM100.299 43.99C99.2431 43.99 98.2911 43.726 97.4431 43.198C96.5951 42.67 95.9311 41.95 95.4511 41.038C94.9711 40.126 94.7311 39.102 94.7311 37.966C94.7311 36.814 94.9711 35.782 95.4511 34.87C95.9311 33.958 96.5951 33.238 97.4431 32.71C98.2911 32.182 99.2431 31.918 100.299 31.918C101.131 31.918 101.875 32.086 102.531 32.422C103.187 32.758 103.707 33.23 104.091 33.838C104.491 34.43 104.707 35.102 104.739 35.854V40.03C104.707 40.798 104.491 41.478 104.091 42.07C103.707 42.662 103.187 43.134 102.531 43.486C101.875 43.822 101.131 43.99 100.299 43.99ZM100.875 41.086C101.755 41.086 102.467 40.798 103.011 40.222C103.555 39.63 103.827 38.87 103.827 37.942C103.827 37.334 103.699 36.798 103.443 36.334C103.203 35.854 102.859 35.486 102.411 35.23C101.979 34.958 101.467 34.822 100.875 34.822C100.299 34.822 99.7871 34.958 99.3391 35.23C98.9071 35.486 98.5631 35.854 98.3071 36.334C98.0671 36.798 97.9471 37.334 97.9471 37.942C97.9471 38.566 98.0671 39.118 98.3071 39.598C98.5631 40.062 98.9071 40.43 99.3391 40.702C99.7871 40.958 100.299 41.086 100.875 41.086ZM103.659 43.75V40.63L104.163 37.798L103.659 35.014V32.158H106.779V43.75H103.659ZM109.56 43.75V32.158H112.704V43.75H109.56ZM112.704 37.342L111.48 36.526C111.624 35.102 112.04 33.982 112.728 33.166C113.416 32.334 114.408 31.918 115.704 31.918C116.264 31.918 116.768 32.014 117.216 32.206C117.664 32.382 118.072 32.678 118.44 33.094L116.472 35.35C116.296 35.158 116.08 35.014 115.824 34.918C115.584 34.822 115.304 34.774 114.984 34.774C114.312 34.774 113.76 34.99 113.328 35.422C112.912 35.838 112.704 36.478 112.704 37.342ZM127.298 43.75V37.102C127.298 36.414 127.082 35.854 126.65 35.422C126.218 34.99 125.658 34.774 124.97 34.774C124.522 34.774 124.122 34.87 123.77 35.062C123.418 35.254 123.138 35.526 122.93 35.878C122.738 36.23 122.642 36.638 122.642 37.102L121.418 36.478C121.418 35.566 121.61 34.774 121.994 34.102C122.394 33.414 122.938 32.878 123.626 32.494C124.33 32.11 125.122 31.918 126.002 31.918C126.85 31.918 127.61 32.134 128.282 32.566C128.954 32.982 129.482 33.534 129.866 34.222C130.25 34.894 130.442 35.622 130.442 36.406V43.75H127.298ZM119.498 43.75V32.158H122.642V43.75H119.498ZM136.623 43.846L131.775 32.158H135.183L138.399 41.086H137.247L140.583 32.158H144.015L138.855 43.846H136.623ZM133.407 48.598L136.935 41.134L138.855 43.846L136.743 48.598H133.407ZM146.956 43.75V30.91C146.956 29.982 147.156 29.166 147.556 28.462C147.956 27.742 148.524 27.174 149.26 26.758C149.996 26.342 150.86 26.134 151.852 26.134C152.604 26.134 153.252 26.262 153.796 26.518C154.34 26.774 154.828 27.126 155.26 27.574L153.268 29.59C153.092 29.414 152.9 29.278 152.692 29.182C152.484 29.086 152.22 29.038 151.9 29.038C151.324 29.038 150.876 29.198 150.556 29.518C150.252 29.822 150.1 30.262 150.1 30.838V43.75H146.956ZM144.268 34.918V32.158H153.532V34.918H144.268ZM158.841 43.846L153.993 32.158H157.401L160.617 41.086H159.465L162.801 32.158H166.233L161.073 43.846H158.841ZM155.625 48.598L159.153 41.134L161.073 43.846L158.961 48.598H155.625Z"/>
</mask>
<path d="M69.7715 43.75V26.878H73.0355V43.75H69.7715ZM72.1715 43.75V40.846H80.7635V43.75H72.1715ZM88.0107 43.99C86.7947 43.99 85.7147 43.734 84.7707 43.222C83.8267 42.694 83.0747 41.974 82.5147 41.062C81.9707 40.15 81.6987 39.11 81.6987 37.942C81.6987 36.79 81.9627 35.766 82.4907 34.87C83.0347 33.958 83.7707 33.238 84.6987 32.71C85.6267 32.166 86.6587 31.894 87.7947 31.894C88.9147 31.894 89.8987 32.15 90.7467 32.662C91.6107 33.158 92.2827 33.846 92.7627 34.726C93.2587 35.59 93.5067 36.574 93.5067 37.678C93.5067 37.886 93.4907 38.102 93.4587 38.326C93.4427 38.534 93.4027 38.774 93.3387 39.046L83.5947 39.07V36.718L91.8747 36.694L90.6027 37.678C90.5707 36.99 90.4427 36.414 90.2187 35.95C90.0107 35.486 89.6987 35.134 89.2827 34.894C88.8827 34.638 88.3867 34.51 87.7947 34.51C87.1707 34.51 86.6267 34.654 86.1627 34.942C85.6987 35.214 85.3387 35.606 85.0827 36.118C84.8427 36.614 84.7227 37.206 84.7227 37.894C84.7227 38.598 84.8507 39.214 85.1067 39.742C85.3787 40.254 85.7627 40.654 86.2587 40.942C86.7547 41.214 87.3307 41.35 87.9867 41.35C88.5787 41.35 89.1147 41.254 89.5947 41.062C90.0747 40.854 90.4907 40.55 90.8427 40.15L92.6907 41.998C92.1307 42.654 91.4427 43.15 90.6267 43.486C89.8267 43.822 88.9547 43.99 88.0107 43.99ZM100.299 43.99C99.2431 43.99 98.2911 43.726 97.4431 43.198C96.5951 42.67 95.9311 41.95 95.4511 41.038C94.9711 40.126 94.7311 39.102 94.7311 37.966C94.7311 36.814 94.9711 35.782 95.4511 34.87C95.9311 33.958 96.5951 33.238 97.4431 32.71C98.2911 32.182 99.2431 31.918 100.299 31.918C101.131 31.918 101.875 32.086 102.531 32.422C103.187 32.758 103.707 33.23 104.091 33.838C104.491 34.43 104.707 35.102 104.739 35.854V40.03C104.707 40.798 104.491 41.478 104.091 42.07C103.707 42.662 103.187 43.134 102.531 43.486C101.875 43.822 101.131 43.99 100.299 43.99ZM100.875 41.086C101.755 41.086 102.467 40.798 103.011 40.222C103.555 39.63 103.827 38.87 103.827 37.942C103.827 37.334 103.699 36.798 103.443 36.334C103.203 35.854 102.859 35.486 102.411 35.23C101.979 34.958 101.467 34.822 100.875 34.822C100.299 34.822 99.7871 34.958 99.3391 35.23C98.9071 35.486 98.5631 35.854 98.3071 36.334C98.0671 36.798 97.9471 37.334 97.9471 37.942C97.9471 38.566 98.0671 39.118 98.3071 39.598C98.5631 40.062 98.9071 40.43 99.3391 40.702C99.7871 40.958 100.299 41.086 100.875 41.086ZM103.659 43.75V40.63L104.163 37.798L103.659 35.014V32.158H106.779V43.75H103.659ZM109.56 43.75V32.158H112.704V43.75H109.56ZM112.704 37.342L111.48 36.526C111.624 35.102 112.04 33.982 112.728 33.166C113.416 32.334 114.408 31.918 115.704 31.918C116.264 31.918 116.768 32.014 117.216 32.206C117.664 32.382 118.072 32.678 118.44 33.094L116.472 35.35C116.296 35.158 116.08 35.014 115.824 34.918C115.584 34.822 115.304 34.774 114.984 34.774C114.312 34.774 113.76 34.99 113.328 35.422C112.912 35.838 112.704 36.478 112.704 37.342ZM127.298 43.75V37.102C127.298 36.414 127.082 35.854 126.65 35.422C126.218 34.99 125.658 34.774 124.97 34.774C124.522 34.774 124.122 34.87 123.77 35.062C123.418 35.254 123.138 35.526 122.93 35.878C122.738 36.23 122.642 36.638 122.642 37.102L121.418 36.478C121.418 35.566 121.61 34.774 121.994 34.102C122.394 33.414 122.938 32.878 123.626 32.494C124.33 32.11 125.122 31.918 126.002 31.918C126.85 31.918 127.61 32.134 128.282 32.566C128.954 32.982 129.482 33.534 129.866 34.222C130.25 34.894 130.442 35.622 130.442 36.406V43.75H127.298ZM119.498 43.75V32.158H122.642V43.75H119.498ZM136.623 43.846L131.775 32.158H135.183L138.399 41.086H137.247L140.583 32.158H144.015L138.855 43.846H136.623ZM133.407 48.598L136.935 41.134L138.855 43.846L136.743 48.598H133.407ZM146.956 43.75V30.91C146.956 29.982 147.156 29.166 147.556 28.462C147.956 27.742 148.524 27.174 149.26 26.758C149.996 26.342 150.86 26.134 151.852 26.134C152.604 26.134 153.252 26.262 153.796 26.518C154.34 26.774 154.828 27.126 155.26 27.574L153.268 29.59C153.092 29.414 152.9 29.278 152.692 29.182C152.484 29.086 152.22 29.038 151.9 29.038C151.324 29.038 150.876 29.198 150.556 29.518C150.252 29.822 150.1 30.262 150.1 30.838V43.75H146.956ZM144.268 34.918V32.158H153.532V34.918H144.268ZM158.841 43.846L153.993 32.158H157.401L160.617 41.086H159.465L162.801 32.158H166.233L161.073 43.846H158.841ZM155.625 48.598L159.153 41.134L161.073 43.846L158.961 48.598H155.625Z" fill="white"/>
<path d="M69.7715 43.75H68.7715V44.75H69.7715V43.75ZM69.7715 26.878V25.878H68.7715V26.878H69.7715ZM73.0355 26.878H74.0355V25.878H73.0355V26.878ZM73.0355 43.75V44.75H74.0355V43.75H73.0355ZM72.1715 43.75H71.1715V44.75H72.1715V43.75ZM72.1715 40.846V39.846H71.1715V40.846H72.1715ZM80.7635 40.846H81.7635V39.846H80.7635V40.846ZM80.7635 43.75V44.75H81.7635V43.75H80.7635ZM69.7715 43.75H70.7715V26.878H69.7715H68.7715V43.75H69.7715ZM69.7715 26.878V27.878H73.0355V26.878V25.878H69.7715V26.878ZM73.0355 26.878H72.0355V43.75H73.0355H74.0355V26.878H73.0355ZM73.0355 43.75V42.75H69.7715V43.75V44.75H73.0355V43.75ZM72.1715 43.75H73.1715V40.846H72.1715H71.1715V43.75H72.1715ZM72.1715 40.846V41.846H80.7635V40.846V39.846H72.1715V40.846ZM80.7635 40.846H79.7635V43.75H80.7635H81.7635V40.846H80.7635ZM80.7635 43.75V42.75H72.1715V43.75V44.75H80.7635V43.75ZM84.7707 43.222L84.2825 44.0948L84.2939 44.101L84.7707 43.222ZM82.5147 41.062L81.6558 41.5743L81.6625 41.5853L82.5147 41.062ZM82.4907 34.87L81.6319 34.3577L81.6292 34.3623L82.4907 34.87ZM84.6987 32.71L85.1933 33.5792L85.2044 33.5727L84.6987 32.71ZM90.7467 32.662L90.2298 33.5181L90.2393 33.5238L90.2488 33.5293L90.7467 32.662ZM92.7627 34.726L91.8848 35.2049L91.89 35.2144L91.8955 35.2239L92.7627 34.726ZM93.4587 38.326L92.4688 38.1846L92.4642 38.2168L92.4617 38.2493L93.4587 38.326ZM93.3387 39.046L93.3412 40.046L94.1312 40.0441L94.3121 39.275L93.3387 39.046ZM83.5947 39.07H82.5947V40.0725L83.5972 40.07L83.5947 39.07ZM83.5947 36.718L83.5918 35.718L82.5947 35.7209V36.718H83.5947ZM91.8747 36.694L92.4866 37.485L94.8127 35.6855L91.8718 35.694L91.8747 36.694ZM90.6027 37.678L89.6038 37.7245L89.6932 39.6459L91.2146 38.469L90.6027 37.678ZM90.2187 35.95L89.3062 36.3591L89.312 36.372L89.3182 36.3847L90.2187 35.95ZM89.2827 34.894L88.7437 35.7363L88.763 35.7487L88.783 35.7602L89.2827 34.894ZM86.1627 34.942L86.6684 35.8047L86.6793 35.7983L86.6901 35.7916L86.1627 34.942ZM85.0827 36.118L84.1882 35.6707L84.1825 35.6824L85.0827 36.118ZM85.1067 39.742L84.2069 40.1783L84.2149 40.1949L84.2236 40.2112L85.1067 39.742ZM86.2587 40.942L85.7566 41.8068L85.7671 41.8129L85.7779 41.8188L86.2587 40.942ZM89.5947 41.062L89.9661 41.9905L89.9793 41.9852L89.9923 41.9796L89.5947 41.062ZM90.8427 40.15L91.5498 39.4429L90.7961 38.6892L90.092 39.4894L90.8427 40.15ZM92.6907 41.998L93.4513 42.6473L94.0513 41.9444L93.3978 41.2909L92.6907 41.998ZM90.6267 43.486L90.2459 42.5613L90.2395 42.564L90.6267 43.486ZM88.0107 43.99V42.99C86.9389 42.99 86.0267 42.7656 85.2475 42.343L84.7707 43.222L84.2939 44.101C85.4028 44.7024 86.6505 44.99 88.0107 44.99V43.99ZM84.7707 43.222L85.2589 42.3492C84.4624 41.9038 83.8364 41.3034 83.3669 40.5387L82.5147 41.062L81.6625 41.5853C82.313 42.6446 83.191 43.4842 84.2826 44.0948L84.7707 43.222ZM82.5147 41.062L83.3735 40.5497C82.931 39.8078 82.6987 38.9482 82.6987 37.942H81.6987H80.6987C80.6987 39.2718 81.0104 40.4922 81.6559 41.5743L82.5147 41.062ZM81.6987 37.942H82.6987C82.6987 36.9488 82.9244 36.1037 83.3522 35.3777L82.4907 34.87L81.6292 34.3623C81.001 35.4283 80.6987 36.6312 80.6987 37.942H81.6987ZM82.4907 34.87L83.3495 35.3823C83.8045 34.6196 84.4146 34.0222 85.1932 33.5792L84.6987 32.71L84.2042 31.8408C83.1268 32.4538 82.2649 33.2964 81.6319 34.3577L82.4907 34.87ZM84.6987 32.71L85.2044 33.5727C85.9704 33.1237 86.8261 32.894 87.7947 32.894V31.894V30.894C86.4913 30.894 85.2831 31.2083 84.193 31.8473L84.6987 32.71ZM87.7947 31.894V32.894C88.7569 32.894 89.5574 33.1121 90.2298 33.5181L90.7467 32.662L91.2636 31.8059C90.24 31.1879 89.0725 30.894 87.7947 30.894V31.894ZM90.7467 32.662L90.2488 33.5293C90.9517 33.9327 91.4926 34.4859 91.8848 35.2049L92.7627 34.726L93.6406 34.2471C93.0728 33.2061 92.2697 32.3833 91.2446 31.7947L90.7467 32.662ZM92.7627 34.726L91.8955 35.2239C92.2953 35.9204 92.5067 36.7293 92.5067 37.678H93.5067H94.5067C94.5067 36.4187 94.2221 35.2596 93.63 34.2281L92.7627 34.726ZM93.5067 37.678H92.5067C92.5067 37.8348 92.4946 38.0034 92.4688 38.1846L93.4587 38.326L94.4487 38.4674C94.4868 38.2006 94.5067 37.9372 94.5067 37.678H93.5067ZM93.4587 38.326L92.4617 38.2493C92.4507 38.3921 92.4212 38.5794 92.3653 38.817L93.3387 39.046L94.3121 39.275C94.3842 38.9686 94.4347 38.6759 94.4558 38.4027L93.4587 38.326ZM93.3387 39.046L93.3362 38.046L83.5922 38.07L83.5947 39.07L83.5972 40.07L93.3412 40.046L93.3387 39.046ZM83.5947 39.07H84.5947V36.718H83.5947H82.5947V39.07H83.5947ZM83.5947 36.718L83.5976 37.718L91.8776 37.694L91.8747 36.694L91.8718 35.694L83.5918 35.718L83.5947 36.718ZM91.8747 36.694L91.2628 35.903L89.9908 36.887L90.6027 37.678L91.2146 38.469L92.4866 37.485L91.8747 36.694ZM90.6027 37.678L91.6016 37.6315C91.5654 36.8517 91.4181 36.1342 91.1193 35.5153L90.2187 35.95L89.3182 36.3847C89.4673 36.6938 89.5761 37.1283 89.6038 37.7245L90.6027 37.678ZM90.2187 35.95L91.1312 35.5409C90.8425 34.8969 90.3917 34.3793 89.7824 34.0278L89.2827 34.894L88.783 35.7602C89.0057 35.8887 89.1789 36.0751 89.3062 36.3591L90.2187 35.95ZM89.2827 34.894L89.8218 34.0517C89.2253 33.67 88.5307 33.51 87.7947 33.51V34.51V35.51C88.2427 35.51 88.5401 35.606 88.7437 35.7363L89.2827 34.894ZM87.7947 34.51V33.51C87.0115 33.51 86.2793 33.6927 85.6353 34.0924L86.1627 34.942L86.6901 35.7916C86.9741 35.6153 87.3299 35.51 87.7947 35.51V34.51ZM86.1627 34.942L85.657 34.0793C85.015 34.4556 84.525 34.9973 84.1883 35.6708L85.0827 36.118L85.9771 36.5652C86.1524 36.2147 86.3824 35.9724 86.6684 35.8047L86.1627 34.942ZM85.0827 36.118L84.1825 35.6824C83.8626 36.3437 83.7227 37.0917 83.7227 37.894H84.7227H85.7227C85.7227 37.3203 85.8228 36.8843 85.9829 36.5536L85.0827 36.118ZM84.7227 37.894H83.7227C83.7227 38.7193 83.8731 39.4898 84.2069 40.1783L85.1067 39.742L86.0065 39.3057C85.8283 38.9382 85.7227 38.4767 85.7227 37.894H84.7227ZM85.1067 39.742L84.2236 40.2112C84.5822 40.8861 85.0973 41.424 85.7566 41.8068L86.2587 40.942L86.7608 40.0772C86.4281 39.884 86.1752 39.6219 85.9898 39.2728L85.1067 39.742ZM86.2587 40.942L85.7779 41.8188C86.4433 42.1837 87.1897 42.35 87.9867 42.35V41.35V40.35C87.4718 40.35 87.0662 40.2443 86.7395 40.0652L86.2587 40.942ZM87.9867 41.35V42.35C88.6876 42.35 89.3521 42.2361 89.9661 41.9905L89.5947 41.062L89.2233 40.1335C88.8773 40.2719 88.4698 40.35 87.9867 40.35V41.35ZM89.5947 41.062L89.9923 41.9796C90.6101 41.7119 91.1459 41.3191 91.5934 40.8106L90.8427 40.15L90.092 39.4894C89.8355 39.7809 89.5393 39.9961 89.1971 40.1444L89.5947 41.062ZM90.8427 40.15L90.1356 40.8571L91.9836 42.7051L92.6907 41.998L93.3978 41.2909L91.5498 39.4429L90.8427 40.15ZM92.6907 41.998L91.9301 41.3487C91.4756 41.8813 90.9188 42.2843 90.246 42.5613L90.6267 43.486L91.0075 44.4107C91.9666 44.0157 92.7859 43.4268 93.4513 42.6473L92.6907 41.998ZM90.6267 43.486L90.2395 42.564C89.5725 42.8441 88.8335 42.99 88.0107 42.99V43.99V44.99C89.0759 44.99 90.0809 44.7999 91.0139 44.408L90.6267 43.486ZM97.4431 43.198L96.9145 44.0469L97.4431 43.198ZM95.4511 41.038L96.336 40.5723L95.4511 41.038ZM95.4511 34.87L96.336 35.3357L95.4511 34.87ZM97.4431 32.71L97.9716 33.5589H97.9716L97.4431 32.71ZM104.091 33.838L103.246 34.372L103.254 34.3851L103.262 34.3979L104.091 33.838ZM104.739 35.854H105.739V35.8327L105.738 35.8115L104.739 35.854ZM104.739 40.03L105.738 40.0716L105.739 40.0508V40.03H104.739ZM104.091 42.07L103.262 41.5101L103.257 41.5179L103.252 41.5258L104.091 42.07ZM102.531 43.486L102.987 44.376L102.995 44.3717L103.004 44.3672L102.531 43.486ZM103.011 40.222L103.738 40.9087L103.747 40.8986L103.011 40.222ZM103.443 36.334L102.549 36.7812L102.558 36.7993L102.568 36.8171L103.443 36.334ZM102.411 35.23L101.878 36.0762L101.896 36.0876L101.915 36.0982L102.411 35.23ZM99.3391 35.23L99.8489 36.0903L99.8581 36.0848L99.3391 35.23ZM98.3071 36.334L97.4247 35.8634L97.4189 35.8746L98.3071 36.334ZM98.3071 39.598L97.4127 40.0452L97.4217 40.0633L97.4315 40.0811L98.3071 39.598ZM99.3391 40.702L98.8063 41.5482L98.8244 41.5596L98.8429 41.5702L99.3391 40.702ZM103.659 43.75H102.659V44.75H103.659V43.75ZM103.659 40.63L102.675 40.4548L102.659 40.5417V40.63H103.659ZM104.163 37.798L105.148 37.9732L105.179 37.7965L105.147 37.6199L104.163 37.798ZM103.659 35.014H102.659V35.1038L102.675 35.1921L103.659 35.014ZM103.659 32.158V31.158H102.659V32.158H103.659ZM106.779 32.158H107.779V31.158H106.779V32.158ZM106.779 43.75V44.75H107.779V43.75H106.779ZM100.299 43.99V42.99C99.4188 42.99 98.6518 42.7726 97.9716 42.3491L97.4431 43.198L96.9145 44.0469C97.9303 44.6794 99.0674 44.99 100.299 44.99V43.99ZM97.4431 43.198L97.9716 42.3491C97.2792 41.918 96.7361 41.3324 96.336 40.5723L95.4511 41.038L94.5662 41.5037C95.1261 42.5676 95.9109 43.422 96.9145 44.0469L97.4431 43.198ZM95.4511 41.038L96.336 40.5723C95.9391 39.8181 95.7311 38.9566 95.7311 37.966H94.7311H93.7311C93.7311 39.2474 94.0031 40.4339 94.5662 41.5037L95.4511 41.038ZM94.7311 37.966H95.7311C95.7311 36.9569 95.9401 36.0879 96.336 35.3357L95.4511 34.87L94.5662 34.4043C94.002 35.4761 93.7311 36.6711 93.7311 37.966H94.7311ZM95.4511 34.87L96.336 35.3357C96.7361 34.5756 97.2792 33.99 97.9716 33.5589L97.4431 32.71L96.9145 31.8611C95.9109 32.486 95.1261 33.3404 94.5662 34.4043L95.4511 34.87ZM97.4431 32.71L97.9716 33.5589C98.6518 33.1354 99.4188 32.918 100.299 32.918V31.918V30.918C99.0674 30.918 97.9303 31.2286 96.9145 31.8611L97.4431 32.71ZM100.299 31.918V32.918C100.993 32.918 101.578 33.0572 102.075 33.312L102.531 32.422L102.987 31.532C102.173 31.1148 101.269 30.918 100.299 30.918V31.918ZM102.531 32.422L102.075 33.312C102.576 33.5685 102.96 33.9193 103.246 34.372L104.091 33.838L104.937 33.304C104.454 32.5407 103.798 31.9475 102.987 31.532L102.531 32.422ZM104.091 33.838L103.262 34.3979C103.553 34.8282 103.715 35.3191 103.74 35.8965L104.739 35.854L105.738 35.8115C105.699 34.8849 105.429 34.0318 104.92 33.2781L104.091 33.838ZM104.739 35.854H103.739V40.03H104.739H105.739V35.854H104.739ZM104.739 40.03L103.74 39.9884C103.715 40.5858 103.551 41.0834 103.262 41.5101L104.091 42.07L104.92 42.6299C105.431 41.8726 105.699 41.0102 105.738 40.0716L104.739 40.03ZM104.091 42.07L103.252 41.5258C102.965 41.9686 102.574 42.328 102.058 42.6048L102.531 43.486L103.004 44.3672C103.8 43.94 104.449 43.3554 104.93 42.6142L104.091 42.07ZM102.531 43.486L102.075 42.596C101.578 42.8508 100.993 42.99 100.299 42.99V43.99V44.99C101.269 44.99 102.173 44.7932 102.987 44.376L102.531 43.486ZM100.875 41.086V42.086C101.997 42.086 102.983 41.7079 103.738 40.9086L103.011 40.222L102.284 39.5354C101.951 39.8881 101.514 40.086 100.875 40.086V41.086ZM103.011 40.222L103.747 40.8986C104.487 40.0938 104.827 39.0793 104.827 37.942H103.827H102.827C102.827 38.6607 102.623 39.1662 102.275 39.5454L103.011 40.222ZM103.827 37.942H104.827C104.827 37.1902 104.668 36.4834 104.319 35.8509L103.443 36.334L102.568 36.8171C102.731 37.1126 102.827 37.4778 102.827 37.942H103.827ZM103.443 36.334L104.338 35.8868C104.013 35.2377 103.534 34.7198 102.907 34.3618L102.411 35.23L101.915 36.0982C102.184 36.2522 102.393 36.4703 102.549 36.7812L103.443 36.334ZM102.411 35.23L102.944 34.3838C102.328 33.9961 101.625 33.822 100.875 33.822V34.822V35.822C101.309 35.822 101.63 35.9199 101.878 36.0762L102.411 35.23ZM100.875 34.822V33.822C100.135 33.822 99.4398 33.999 98.8201 34.3752L99.3391 35.23L99.8581 36.0848C100.134 35.917 100.463 35.822 100.875 35.822V34.822ZM99.3391 35.23L98.8293 34.3697C98.2267 34.7268 97.7595 35.2358 97.4247 35.8634L98.3071 36.334L99.1894 36.8046C99.3667 36.4722 99.5875 36.2452 99.8489 36.0903L99.3391 35.23ZM98.3071 36.334L97.4189 35.8746C97.0942 36.5022 96.9471 37.2004 96.9471 37.942H97.9471H98.9471C98.9471 37.4676 99.0399 37.0938 99.1953 36.7934L98.3071 36.334ZM97.9471 37.942H96.9471C96.9471 38.696 97.0928 39.4054 97.4127 40.0452L98.3071 39.598L99.2015 39.1508C99.0414 38.8306 98.9471 38.436 98.9471 37.942H97.9471ZM98.3071 39.598L97.4315 40.0811C97.766 40.6873 98.2256 41.1826 98.8063 41.5482L99.3391 40.702L99.8719 39.8558C99.5886 39.6774 99.3602 39.4367 99.1827 39.1149L98.3071 39.598ZM99.3391 40.702L98.8429 41.5702C99.459 41.9223 100.146 42.086 100.875 42.086V41.086V40.086C100.452 40.086 100.115 39.9937 99.8352 39.8338L99.3391 40.702ZM103.659 43.75H104.659V40.63H103.659H102.659V43.75H103.659ZM103.659 40.63L104.644 40.8052L105.148 37.9732L104.163 37.798L103.179 37.6228L102.675 40.4548L103.659 40.63ZM104.163 37.798L105.147 37.6199L104.643 34.8359L103.659 35.014L102.675 35.1921L103.179 37.9761L104.163 37.798ZM103.659 35.014H104.659V32.158H103.659H102.659V35.014H103.659ZM103.659 32.158V33.158H106.779V32.158V31.158H103.659V32.158ZM106.779 32.158H105.779V43.75H106.779H107.779V32.158H106.779ZM106.779 43.75V42.75H103.659V43.75V44.75H106.779V43.75ZM109.56 43.75H108.56V44.75H109.56V43.75ZM109.56 32.158V31.158H108.56V32.158H109.56ZM112.704 32.158H113.704V31.158H112.704V32.158ZM112.704 43.75V44.75H113.704V43.75H112.704ZM112.704 37.342L112.15 38.174L113.704 39.2105V37.342H112.704ZM111.48 36.526L110.486 36.4254L110.425 37.0242L110.926 37.358L111.48 36.526ZM112.728 33.166L113.493 33.8106L113.499 33.8033L112.728 33.166ZM117.216 32.206L116.823 33.1251L116.837 33.1312L116.851 33.1368L117.216 32.206ZM118.44 33.094L119.194 33.7514L119.771 33.0894L119.189 32.4314L118.44 33.094ZM116.472 35.35L115.735 36.0257L116.491 36.85L117.226 36.0074L116.472 35.35ZM115.824 34.918L115.453 35.8465L115.463 35.8505L115.473 35.8543L115.824 34.918ZM109.56 43.75H110.56V32.158H109.56H108.56V43.75H109.56ZM109.56 32.158V33.158H112.704V32.158V31.158H109.56V32.158ZM112.704 32.158H111.704V43.75H112.704H113.704V32.158H112.704ZM112.704 43.75V42.75H109.56V43.75V44.75H112.704V43.75ZM112.704 37.342L113.259 36.5099L112.035 35.6939L111.48 36.526L110.926 37.358L112.15 38.174L112.704 37.342ZM111.48 36.526L112.475 36.6266C112.606 35.336 112.972 34.4281 113.493 33.8106L112.728 33.166L111.964 32.5214C111.109 33.5359 110.643 34.868 110.486 36.4254L111.48 36.526ZM112.728 33.166L113.499 33.8033C113.959 33.2474 114.641 32.918 115.704 32.918V31.918V30.918C114.176 30.918 112.874 31.4206 111.958 32.5287L112.728 33.166ZM115.704 31.918V32.918C116.149 32.918 116.516 32.9939 116.823 33.1251L117.216 32.206L117.61 31.2869C117.021 31.0341 116.38 30.918 115.704 30.918V31.918ZM117.216 32.206L116.851 33.1368C117.13 33.2466 117.412 33.4407 117.691 33.7566L118.44 33.094L119.189 32.4314C118.733 31.9153 118.198 31.5174 117.582 31.2752L117.216 32.206ZM118.44 33.094L117.687 32.4366L115.719 34.6926L116.472 35.35L117.226 36.0074L119.194 33.7514L118.44 33.094ZM116.472 35.35L117.21 34.6743C116.922 34.3604 116.571 34.1301 116.176 33.9817L115.824 34.918L115.473 35.8543C115.589 35.8979 115.671 35.9556 115.735 36.0257L116.472 35.35ZM115.824 34.918L116.196 33.9895C115.813 33.8365 115.402 33.774 114.984 33.774V34.774V35.774C115.207 35.774 115.356 35.8075 115.453 35.8465L115.824 34.918ZM114.984 34.774V33.774C114.076 33.774 113.261 34.0757 112.621 34.7149L113.328 35.422L114.036 36.1291C114.26 35.9043 114.549 35.774 114.984 35.774V34.774ZM113.328 35.422L112.621 34.7149C111.945 35.3908 111.704 36.3366 111.704 37.342H112.704H113.704C113.704 36.6194 113.88 36.2852 114.036 36.1291L113.328 35.422ZM127.298 43.75H126.298V44.75H127.298V43.75ZM126.65 35.422L125.943 36.1291H125.943L126.65 35.422ZM122.93 35.878L122.069 35.3693L122.06 35.3841L122.052 35.3991L122.93 35.878ZM122.642 37.102L122.188 37.9929L123.642 38.7343V37.102H122.642ZM121.418 36.478H120.418V37.0906L120.964 37.3689L121.418 36.478ZM121.994 34.102L121.129 33.5994L121.126 33.6059L121.994 34.102ZM123.626 32.494L123.147 31.6161L123.139 31.6208L123.626 32.494ZM128.282 32.566L127.741 33.4072L127.748 33.4118L127.756 33.4163L128.282 32.566ZM129.866 34.222L128.993 34.7094L128.998 34.7181L129.866 34.222ZM130.442 43.75V44.75H131.442V43.75H130.442ZM119.498 43.75H118.498V44.75H119.498V43.75ZM119.498 32.158V31.158H118.498V32.158H119.498ZM122.642 32.158H123.642V31.158H122.642V32.158ZM122.642 43.75V44.75H123.642V43.75H122.642ZM127.298 43.75H128.298V37.102H127.298H126.298V43.75H127.298ZM127.298 37.102H128.298C128.298 36.1853 128.001 35.3588 127.357 34.7149L126.65 35.422L125.943 36.1291C126.163 36.3492 126.298 36.6427 126.298 37.102H127.298ZM126.65 35.422L127.357 34.7149C126.713 34.071 125.887 33.774 124.97 33.774V34.774V35.774C125.429 35.774 125.723 35.909 125.943 36.1291L126.65 35.422ZM124.97 34.774V33.774C124.375 33.774 123.807 33.9029 123.291 34.1841L123.77 35.062L124.249 35.9399C124.437 35.8371 124.669 35.774 124.97 35.774V34.774ZM123.77 35.062L123.291 34.1841C122.778 34.4642 122.367 34.8652 122.069 35.3693L122.93 35.878L123.791 36.3867C123.909 36.1868 124.058 36.0438 124.249 35.9399L123.77 35.062ZM122.93 35.878L122.052 35.3991C121.768 35.9197 121.642 36.4972 121.642 37.102H122.642H123.642C123.642 36.7788 123.708 36.5403 123.808 36.3569L122.93 35.878ZM122.642 37.102L123.096 36.2111L121.872 35.5871L121.418 36.478L120.964 37.3689L122.188 37.9929L122.642 37.102ZM121.418 36.478H122.418C122.418 35.7088 122.579 35.0941 122.862 34.5981L121.994 34.102L121.126 33.6059C120.641 34.4539 120.418 35.4232 120.418 36.478H121.418ZM121.994 34.102L122.858 34.6046C123.169 34.0701 123.584 33.6628 124.113 33.3672L123.626 32.494L123.139 31.6208C122.292 32.0932 121.619 32.7579 121.129 33.5994L121.994 34.102ZM123.626 32.494L124.105 33.3719C124.648 33.0756 125.273 32.918 126.002 32.918V31.918V30.918C124.971 30.918 124.012 31.1444 123.147 31.6161L123.626 32.494ZM126.002 31.918V32.918C126.671 32.918 127.241 33.0854 127.741 33.4072L128.282 32.566L128.823 31.7248C127.979 31.1826 127.029 30.918 126.002 30.918V31.918ZM128.282 32.566L127.756 33.4163C128.283 33.743 128.692 34.1703 128.993 34.7094L129.866 34.222L130.739 33.7346C130.272 32.8977 129.624 32.221 128.808 31.7157L128.282 32.566ZM129.866 34.222L128.998 34.7181C129.294 35.237 129.442 35.7937 129.442 36.406H130.442H131.442C131.442 35.4503 131.206 34.551 130.734 33.7259L129.866 34.222ZM130.442 36.406H129.442V43.75H130.442H131.442V36.406H130.442ZM130.442 43.75V42.75H127.298V43.75V44.75H130.442V43.75ZM119.498 43.75H120.498V32.158H119.498H118.498V43.75H119.498ZM119.498 32.158V33.158H122.642V32.158V31.158H119.498V32.158ZM122.642 32.158H121.642V43.75H122.642H123.642V32.158H122.642ZM122.642 43.75V42.75H119.498V43.75V44.75H122.642V43.75ZM136.623 43.846L135.699 44.2291L135.955 44.846H136.623V43.846ZM131.775 32.158V31.158H130.277L130.851 32.5411L131.775 32.158ZM135.183 32.158L136.123 31.8191L135.885 31.158H135.183V32.158ZM138.399 41.086V42.086H139.822L139.339 40.7471L138.399 41.086ZM137.247 41.086L136.31 40.736L135.805 42.086H137.247V41.086ZM140.583 32.158V31.158H139.889L139.646 31.808L140.583 32.158ZM144.015 32.158L144.929 32.5619L145.549 31.158H144.015V32.158ZM138.855 43.846V44.846H139.506L139.769 44.2499L138.855 43.846ZM133.407 48.598L132.502 48.1707L131.828 49.598H133.407V48.598ZM136.935 41.134L137.751 40.5562L136.762 39.1594L136.03 40.7067L136.935 41.134ZM138.855 43.846L139.768 44.2521L139.999 43.7324L139.671 43.2682L138.855 43.846ZM136.743 48.598V49.598H137.392L137.656 49.0041L136.743 48.598ZM136.623 43.846L137.546 43.4629L132.698 31.7749L131.775 32.158L130.851 32.5411L135.699 44.2291L136.623 43.846ZM131.775 32.158V33.158H135.183V32.158V31.158H131.775V32.158ZM135.183 32.158L134.242 32.4969L137.458 41.4249L138.399 41.086L139.339 40.7471L136.123 31.8191L135.183 32.158ZM138.399 41.086V40.086H137.247V41.086V42.086H138.399V41.086ZM137.247 41.086L138.183 41.436L141.519 32.508L140.583 32.158L139.646 31.808L136.31 40.736L137.247 41.086ZM140.583 32.158V33.158H144.015V32.158V31.158H140.583V32.158ZM144.015 32.158L143.1 31.7541L137.94 43.4421L138.855 43.846L139.769 44.2499L144.929 32.5619L144.015 32.158ZM138.855 43.846V42.846H136.623V43.846V44.846H138.855V43.846ZM133.407 48.598L134.311 49.0253L137.839 41.5613L136.935 41.134L136.03 40.7067L132.502 48.1707L133.407 48.598ZM136.935 41.134L136.118 41.7118L138.038 44.4238L138.855 43.846L139.671 43.2682L137.751 40.5562L136.935 41.134ZM138.855 43.846L137.941 43.4399L135.829 48.1919L136.743 48.598L137.656 49.0041L139.768 44.2521L138.855 43.846ZM136.743 48.598V47.598H133.407V48.598V49.598H136.743V48.598ZM146.956 43.75H145.956V44.75H146.956V43.75ZM147.556 28.462L148.425 28.956L148.43 28.9476L147.556 28.462ZM149.26 26.758L149.752 27.6286L149.26 26.758ZM153.796 26.518L154.222 25.6132L153.796 26.518ZM155.26 27.574L155.971 28.2769L156.657 27.5825L155.98 26.8799L155.26 27.574ZM153.268 29.59L152.561 30.2971L153.272 31.0085L153.979 30.2929L153.268 29.59ZM152.692 29.182L153.111 28.274V28.274L152.692 29.182ZM150.556 29.518L149.849 28.8109V28.8109L150.556 29.518ZM150.1 43.75V44.75H151.1V43.75H150.1ZM144.268 34.918H143.268V35.918H144.268V34.918ZM144.268 32.158V31.158H143.268V32.158H144.268ZM153.532 32.158H154.532V31.158H153.532V32.158ZM153.532 34.918V35.918H154.532V34.918H153.532ZM146.956 43.75H147.956V30.91H146.956H145.956V43.75H146.956ZM146.956 30.91H147.956C147.956 30.1295 148.123 29.4886 148.425 28.956L147.556 28.462L146.686 27.968C146.189 28.8434 145.956 29.8345 145.956 30.91H146.956ZM147.556 28.462L148.43 28.9476C148.738 28.3931 149.172 27.9564 149.752 27.6286L149.26 26.758L148.768 25.8874C147.876 26.3916 147.174 27.0909 146.682 27.9764L147.556 28.462ZM149.26 26.758L149.752 27.6286C150.314 27.3111 151.002 27.134 151.852 27.134V26.134V25.134C150.717 25.134 149.678 25.3729 148.768 25.8874L149.26 26.758ZM151.852 26.134V27.134C152.493 27.134 152.988 27.2432 153.37 27.4228L153.796 26.518L154.222 25.6132C153.515 25.2808 152.715 25.134 151.852 25.134V26.134ZM153.796 26.518L153.37 27.4228C153.8 27.6252 154.189 27.9045 154.54 28.2681L155.26 27.574L155.98 26.8799C155.466 26.3475 154.88 25.9228 154.222 25.6132L153.796 26.518ZM155.26 27.574L154.549 26.8711L152.557 28.8871L153.268 29.59L153.979 30.2929L155.971 28.2769L155.26 27.574ZM153.268 29.59L153.975 28.8829C153.723 28.6307 153.435 28.4236 153.111 28.274L152.692 29.182L152.273 30.09C152.365 30.1324 152.461 30.1973 152.561 30.2971L153.268 29.59ZM152.692 29.182L153.111 28.274C152.73 28.0983 152.311 28.038 151.9 28.038V29.038V30.038C152.129 30.038 152.237 30.0737 152.273 30.09L152.692 29.182ZM151.9 29.038V28.038C151.135 28.038 150.404 28.2557 149.849 28.8109L150.556 29.518L151.263 30.2251C151.348 30.1403 151.513 30.038 151.9 30.038V29.038ZM150.556 29.518L149.849 28.8109C149.3 29.3593 149.1 30.0897 149.1 30.838H150.1H151.1C151.1 30.4343 151.203 30.2847 151.263 30.2251L150.556 29.518ZM150.1 30.838H149.1V43.75H150.1H151.1V30.838H150.1ZM150.1 43.75V42.75H146.956V43.75V44.75H150.1V43.75ZM144.268 34.918H145.268V32.158H144.268H143.268V34.918H144.268ZM144.268 32.158V33.158H153.532V32.158V31.158H144.268V32.158ZM153.532 32.158H152.532V34.918H153.532H154.532V32.158H153.532ZM153.532 34.918V33.918H144.268V34.918V35.918H153.532V34.918ZM158.841 43.846L157.918 44.2291L158.173 44.846H158.841V43.846ZM153.993 32.158V31.158H152.496L153.07 32.5411L153.993 32.158ZM157.401 32.158L158.342 31.8191L158.104 31.158H157.401V32.158ZM160.617 41.086V42.086H162.04L161.558 40.7471L160.617 41.086ZM159.465 41.086L158.529 40.736L158.024 42.086H159.465V41.086ZM162.801 32.158V31.158H162.107L161.865 31.808L162.801 32.158ZM166.233 32.158L167.148 32.5619L167.768 31.158H166.233V32.158ZM161.073 43.846V44.846H161.725L161.988 44.2499L161.073 43.846ZM155.625 48.598L154.721 48.1707L154.047 49.598H155.625V48.598ZM159.153 41.134L159.969 40.5562L158.981 39.1594L158.249 40.7067L159.153 41.134ZM161.073 43.846L161.987 44.2521L162.218 43.7324L161.889 43.2682L161.073 43.846ZM158.961 48.598V49.598H159.611L159.875 49.0041L158.961 48.598ZM158.841 43.846L159.765 43.4629L154.917 31.7749L153.993 32.158L153.07 32.5411L157.918 44.2291L158.841 43.846ZM153.993 32.158V33.158H157.401V32.158V31.158H153.993V32.158ZM157.401 32.158L156.46 32.4969L159.676 41.4249L160.617 41.086L161.558 40.7471L158.342 31.8191L157.401 32.158ZM160.617 41.086V40.086H159.465V41.086V42.086H160.617V41.086ZM159.465 41.086L160.402 41.436L163.738 32.508L162.801 32.158L161.865 31.808L158.529 40.736L159.465 41.086ZM162.801 32.158V33.158H166.233V32.158V31.158H162.801V32.158ZM166.233 32.158L165.318 31.7541L160.158 43.4421L161.073 43.846L161.988 44.2499L167.148 32.5619L166.233 32.158ZM161.073 43.846V42.846H158.841V43.846V44.846H161.073V43.846ZM155.625 48.598L156.529 49.0253L160.057 41.5613L159.153 41.134L158.249 40.7067L154.721 48.1707L155.625 48.598ZM159.153 41.134L158.337 41.7118L160.257 44.4238L161.073 43.846L161.889 43.2682L159.969 40.5562L159.153 41.134ZM161.073 43.846L160.159 43.4399L158.047 48.1919L158.961 48.598L159.875 49.0041L161.987 44.2521L161.073 43.846ZM158.961 48.598V47.598H155.625V48.598V49.598H158.961V48.598Z" fill="black" fill-opacity="0.06" mask="url(#path-2-outside-1_29005_40)"/>
</svg>
